{
	"patcher" : 	{
		"fileversion" : 1,
		"appversion" : 		{
			"major" : 7,
			"minor" : 3,
			"revision" : 0,
			"architecture" : "x64",
			"modernui" : 1
		}
,
		"rect" : [ 3034.0, 77.0, 1450.0, 1049.0 ],
		"bglocked" : 0,
		"openinpresentation" : 1,
		"default_fontsize" : 24.0,
		"default_fontface" : 0,
		"default_fontname" : "Arial",
		"gridonopen" : 1,
		"gridsize" : [ 15.0, 15.0 ],
		"gridsnaponopen" : 1,
		"objectsnaponopen" : 1,
		"statusbarvisible" : 2,
		"toolbarvisible" : 1,
		"lefttoolbarpinned" : 0,
		"toptoolbarpinned" : 0,
		"righttoolbarpinned" : 0,
		"bottomtoolbarpinned" : 0,
		"toolbars_unpinned_last_save" : 0,
		"tallnewobj" : 0,
		"boxanimatetime" : 200,
		"enablehscroll" : 1,
		"enablevscroll" : 1,
		"devicewidth" : 0.0,
		"description" : "",
		"digest" : "",
		"tags" : "",
		"style" : "",
		"subpatcher_template" : "Default Max 7",
		"boxes" : [ 			{
				"box" : 				{
					"id" : "obj-8",
					"maxclass" : "comment",
					"numinlets" : 1,
					"numoutlets" : 0,
					"patching_rect" : [ 30.0, 867.0, 217.0, 34.0 ],
					"style" : "",
					"text" : "INSTRUCTIONS"
				}

			}
, 			{
				"box" : 				{
					"fontname" : "Comic Sans MS",
					"fontsize" : 14.0,
					"hidden" : 1,
					"id" : "obj-6",
					"linecount" : 7,
					"maxclass" : "comment",
					"numinlets" : 1,
					"numoutlets" : 0,
					"patching_rect" : [ 30.0, 940.5, 159.0, 143.0 ],
					"presentation" : 1,
					"presentation_linecount" : 5,
					"presentation_rect" : [ 14.0, 44.5, 234.0, 124.0 ],
					"style" : "",
					"text" : "0. Before starting, click the first slot of the save grid! This preset sets the speed to normal. There are other presets for you to listen to as well.\n"
				}

			}
, 			{
				"box" : 				{
					"fontname" : "Comic Sans MS",
					"fontsize" : 14.0,
					"id" : "obj-3",
					"maxclass" : "comment",
					"numinlets" : 1,
					"numoutlets" : 0,
					"patching_rect" : [ 30.0, 905.5, 279.0, 26.0 ],
					"presentation" : 1,
					"presentation_rect" : [ 374.799988, 466.800018, 288.0, 26.0 ],
					"style" : "",
					"text" : "(Confused? Unlock me for details!)"
				}

			}
, 			{
				"box" : 				{
					"fontname" : "Comic Sans MS",
					"fontsize" : 14.0,
					"hidden" : 1,
					"id" : "obj-169",
					"linecount" : 7,
					"maxclass" : "comment",
					"numinlets" : 1,
					"numoutlets" : 0,
					"patching_rect" : [ 1183.0, 940.5, 238.0, 143.0 ],
					"presentation" : 1,
					"presentation_linecount" : 6,
					"presentation_rect" : [ 292.800018, 80.000015, 307.299988, 124.0 ],
					"style" : "",
					"text" : "5. SAVE\nIf you'd like to save your groovy beats, shift-click on an empty slot on the grid. Dark gray indicates that the slot is filled.\nPLEASE RESTART THE MACHINE EACH TIME YOU LOAD A TRACK."
				}

			}
, 			{
				"box" : 				{
					"fontname" : "Comic Sans MS",
					"fontsize" : 14.0,
					"hidden" : 1,
					"id" : "obj-168",
					"linecount" : 4,
					"maxclass" : "comment",
					"numinlets" : 1,
					"numoutlets" : 0,
					"patching_rect" : [ 936.0, 940.5, 238.0, 85.0 ],
					"presentation" : 1,
					"presentation_linecount" : 4,
					"presentation_rect" : [ 734.600037, 238.399994, 189.0, 85.0 ],
					"style" : "",
					"text" : "4. WHISTLE\t\nClick and hold the whistle to let everybody know that the party is arriving!"
				}

			}
, 			{
				"box" : 				{
					"fontname" : "Comic Sans MS",
					"fontsize" : 14.0,
					"hidden" : 1,
					"id" : "obj-167",
					"linecount" : 9,
					"maxclass" : "comment",
					"numinlets" : 1,
					"numoutlets" : 0,
					"patching_rect" : [ 689.5, 940.5, 238.0, 182.0 ],
					"presentation" : 1,
					"presentation_linecount" : 7,
					"presentation_rect" : [ 652.200012, 373.300018, 285.0, 143.0 ],
					"style" : "",
					"text" : "3. CONTROLS\nThe power button turns the train on/off. The send button sends your current drum machine to ChucK (the audio reader), so your changes won't be implemented until you press send. The clear button removes your current drum machine."
				}

			}
, 			{
				"box" : 				{
					"fontname" : "Comic Sans MS",
					"fontsize" : 14.0,
					"hidden" : 1,
					"id" : "obj-166",
					"linecount" : 3,
					"maxclass" : "comment",
					"numinlets" : 1,
					"numoutlets" : 0,
					"patching_rect" : [ 445.5, 940.5, 235.0, 65.0 ],
					"presentation" : 1,
					"presentation_linecount" : 4,
					"presentation_rect" : [ 105.800003, 329.600006, 161.0, 85.0 ],
					"style" : "",
					"text" : "2. SPEED SLIDER\nThe speed slider controls how fast the party is going."
				}

			}
, 			{
				"box" : 				{
					"fontname" : "Comic Sans MS",
					"fontsize" : 14.0,
					"hidden" : 1,
					"id" : "obj-165",
					"linecount" : 5,
					"maxclass" : "comment",
					"numinlets" : 1,
					"numoutlets" : 0,
					"patching_rect" : [ 200.000015, 940.5, 235.0, 104.0 ],
					"presentation" : 1,
					"presentation_linecount" : 7,
					"presentation_rect" : [ 105.800003, 172.600006, 161.0, 143.0 ],
					"style" : "",
					"text" : "1. DRUM MACHINE\nThe body of the train is a drum machine with 16 beats. Click on the ith beat of each instrument if you'd like it to be played!"
				}

			}
, 			{
				"box" : 				{
					"fontname" : "Comic Sans MS",
					"hidden" : 1,
					"id" : "obj-164",
					"maxclass" : "comment",
					"numinlets" : 1,
					"numoutlets" : 0,
					"patching_rect" : [ 35.0, 13.0, 379.5, 40.0 ],
					"presentation" : 1,
					"presentation_rect" : [ 14.0, 2.5, 372.0, 40.0 ],
					"style" : "",
					"text" : "All aboard the 808 party train!!"
				}

			}
, 			{
				"box" : 				{
					"fontface" : 1,
					"fontname" : "Comic Sans MS",
					"id" : "obj-156",
					"linecount" : 3,
					"maxclass" : "comment",
					"numinlets" : 1,
					"numoutlets" : 0,
					"patching_rect" : [ 511.5, 493.0, 169.0, 107.0 ],
					"presentation" : 1,
					"presentation_rect" : [ 349.200012, 424.800018, 299.399994, 40.0 ],
					"style" : "",
					"text" : "THE 808 PARTY TRAIN"
				}

			}
, 			{
				"box" : 				{
					"id" : "obj-152",
					"maxclass" : "comment",
					"numinlets" : 1,
					"numoutlets" : 0,
					"patching_rect" : [ 139.600006, 51.0, 200.399994, 34.0 ],
					"style" : "",
					"text" : "(This is a slider)"
				}

			}
, 			{
				"box" : 				{
					"fontface" : 1,
					"fontname" : "Comic Sans MS",
					"fontsize" : 14.0,
					"id" : "obj-146",
					"maxclass" : "comment",
					"numinlets" : 1,
					"numoutlets" : 0,
					"patching_rect" : [ 39.399986, 55.0, 92.0, 26.0 ],
					"presentation" : 1,
					"presentation_rect" : [ 286.199982, 329.600006, 70.0, 26.0 ],
					"style" : "",
					"text" : "SPEED",
					"textjustification" : 2
				}

			}
, 			{
				"box" : 				{
					"fontface" : 1,
					"fontname" : "Comic Sans MS",
					"fontsize" : 14.0,
					"id" : "obj-145",
					"maxclass" : "comment",
					"numinlets" : 1,
					"numoutlets" : 0,
					"patching_rect" : [ 753.5, 487.5, 92.0, 26.0 ],
					"presentation" : 1,
					"presentation_rect" : [ 258.199982, 309.600006, 98.0, 26.0 ],
					"style" : "",
					"text" : "HIGH TOM",
					"textjustification" : 2
				}

			}
, 			{
				"box" : 				{
					"fontface" : 1,
					"fontname" : "Comic Sans MS",
					"fontsize" : 14.0,
					"id" : "obj-144",
					"maxclass" : "comment",
					"numinlets" : 1,
					"numoutlets" : 0,
					"patching_rect" : [ 1031.400024, 67.400002, 92.0, 26.0 ],
					"presentation" : 1,
					"presentation_rect" : [ 286.199982, 289.600006, 70.0, 26.0 ],
					"style" : "",
					"text" : "CLAP",
					"textjustification" : 2
				}

			}
, 			{
				"box" : 				{
					"fontface" : 1,
					"fontname" : "Comic Sans MS",
					"fontsize" : 14.0,
					"id" : "obj-143",
					"maxclass" : "comment",
					"numinlets" : 1,
					"numoutlets" : 0,
					"patching_rect" : [ 768.0, 180.0, 92.0, 26.0 ],
					"presentation" : 1,
					"presentation_rect" : [ 286.199982, 269.600006, 70.0, 26.0 ],
					"style" : "",
					"text" : "CLAVES",
					"textjustification" : 2
				}

			}
, 			{
				"box" : 				{
					"fontface" : 1,
					"fontname" : "Comic Sans MS",
					"fontsize" : 14.0,
					"id" : "obj-141",
					"maxclass" : "comment",
					"numinlets" : 1,
					"numoutlets" : 0,
					"patching_rect" : [ 473.5, 99.5, 92.0, 26.0 ],
					"presentation" : 1,
					"presentation_rect" : [ 275.199982, 249.600006, 81.0, 26.0 ],
					"style" : "",
					"text" : "COWBELL",
					"textjustification" : 2
				}

			}
, 			{
				"box" : 				{
					"id" : "obj-135",
					"ignoreclick" : 1,
					"maxclass" : "pictctrl",
					"name" : "chimney.png",
					"numinlets" : 1,
					"numoutlets" : 1,
					"outlettype" : [ "int" ],
					"parameter_enable" : 0,
					"patching_rect" : [ 86.0, 580.0, 20.0, 20.0 ],
					"presentation" : 1,
					"presentation_rect" : [ 584.800049, 194.000015, 31.199966, 54.999996 ]
				}

			}
, 			{
				"box" : 				{
					"id" : "obj-128",
					"linecount" : 4,
					"maxclass" : "comment",
					"numinlets" : 1,
					"numoutlets" : 0,
					"patching_rect" : [ 145.599991, 499.399994, 150.0, 117.0 ],
					"style" : "",
					"text" : "Steam comes out when horn sounds"
				}

			}
, 			{
				"box" : 				{
					"id" : "obj-126",
					"maxclass" : "pictctrl",
					"name" : "steam.png",
					"numinlets" : 1,
					"numoutlets" : 1,
					"outlettype" : [ "int" ],
					"parameter_enable" : 0,
					"patching_rect" : [ 86.0, 524.5, 44.0, 44.0 ],
					"presentation" : 1,
					"presentation_rect" : [ 500.399994, 85.000015, 104.800003, 104.800003 ]
				}

			}
, 			{
				"box" : 				{
					"annotation" : "Blow the whistle!",
					"hint" : "Blow",
					"id" : "obj-123",
					"maxclass" : "pictctrl",
					"name" : "horn.png",
					"numinlets" : 1,
					"numoutlets" : 1,
					"outlettype" : [ "int" ],
					"parameter_enable" : 0,
					"patching_rect" : [ 102.100006, 643.259399, 72.799995, 72.481262 ],
					"presentation" : 1,
					"presentation_rect" : [ 621.299988, 269.600006, 84.34285, 82.0 ]
				}

			}
, 			{
				"box" : 				{
					"annotation" : "Clear the horn!",
					"hint" : "Clear",
					"id" : "obj-122",
					"maxclass" : "pictctrl",
					"name" : "delete.png",
					"numinlets" : 1,
					"numoutlets" : 1,
					"outlettype" : [ "int" ],
					"parameter_enable" : 0,
					"patching_rect" : [ 584.200012, 288.941193, 58.0, 55.658825 ],
					"presentation" : 1,
					"presentation_rect" : [ 539.700012, 357.600006, 60.400002, 60.400002 ]
				}

			}
, 			{
				"box" : 				{
					"annotation" : "Play your beats!",
					"hint" : "Send beats",
					"id" : "obj-119",
					"maxclass" : "pictctrl",
					"name" : "send.png",
					"numinlets" : 1,
					"numoutlets" : 1,
					"outlettype" : [ "int" ],
					"parameter_enable" : 0,
					"patching_rect" : [ 479.5, 292.0, 58.0, 58.0 ],
					"presentation" : 1,
					"presentation_rect" : [ 455.600006, 357.600006, 62.800003, 60.400002 ]
				}

			}
, 			{
				"box" : 				{
					"annotation" : "Power",
					"hint" : "Power",
					"id" : "obj-118",
					"maxclass" : "pictctrl",
					"name" : "power.png",
					"numinlets" : 1,
					"numoutlets" : 1,
					"outlettype" : [ "int" ],
					"parameter_enable" : 0,
					"patching_rect" : [ 550.0, 724.0, 100.0, 100.0 ],
					"presentation" : 1,
					"presentation_rect" : [ 374.799988, 357.600006, 59.599998, 60.400002 ]
				}

			}
, 			{
				"box" : 				{
					"fontname" : "Arial",
					"fontsize" : 13.0,
					"id" : "obj-109",
					"maxclass" : "message",
					"numinlets" : 2,
					"numoutlets" : 1,
					"outlettype" : [ "" ],
					"patching_rect" : [ 738.0, 553.5, 189.0, 23.0 ],
					"style" : "",
					"text" : "1 1 0 0 1 0 0 1 1 1 0 0 1 0 0 1"
				}

			}
, 			{
				"box" : 				{
					"autosize" : 1,
					"bgcolor" : [ 0.011765, 0.396078, 0.752941, 1.0 ],
					"color" : [ 0.317647, 0.654902, 0.976471, 1.0 ],
					"columns" : 16,
					"elementcolor" : [ 0.086275, 0.309804, 0.52549, 1.0 ],
					"id" : "obj-110",
					"maxclass" : "matrixctrl",
					"numinlets" : 1,
					"numoutlets" : 2,
					"outlettype" : [ "list", "list" ],
					"parameter_enable" : 0,
					"patching_rect" : [ 738.0, 515.5, 258.0, 18.0 ],
					"presentation" : 1,
					"presentation_rect" : [ 358.0, 313.600006, 258.0, 18.0 ],
					"rows" : 1,
					"style" : "",
					"varname" : "congaBeats"
				}

			}
, 			{
				"box" : 				{
					"id" : "obj-111",
					"maxclass" : "newobj",
					"numinlets" : 1,
					"numoutlets" : 1,
					"outlettype" : [ "" ],
					"patching_rect" : [ 738.0, 601.5, 241.0, 36.0 ],
					"style" : "",
					"text" : "prepend /highTomList"
				}

			}
, 			{
				"box" : 				{
					"fontname" : "Arial",
					"fontsize" : 13.0,
					"id" : "obj-106",
					"maxclass" : "message",
					"numinlets" : 2,
					"numoutlets" : 1,
					"outlettype" : [ "" ],
					"patching_rect" : [ 1054.0, 137.5, 189.0, 23.0 ],
					"style" : "",
					"text" : "1 0 1 0 1 1 0 0 1 0 0 0 1 0 0 0"
				}

			}
, 			{
				"box" : 				{
					"autosize" : 1,
					"bgcolor" : [ 0.0, 0.533333, 0.168627, 1.0 ],
					"color" : [ 0.439216, 0.74902, 0.254902, 1.0 ],
					"columns" : 16,
					"elementcolor" : [ 0.043137, 0.364706, 0.094118, 1.0 ],
					"id" : "obj-107",
					"maxclass" : "matrixctrl",
					"numinlets" : 1,
					"numoutlets" : 2,
					"outlettype" : [ "list", "list" ],
					"parameter_enable" : 0,
					"patching_rect" : [ 1054.0, 99.5, 258.0, 18.0 ],
					"presentation" : 1,
					"presentation_rect" : [ 358.0, 293.600006, 258.0, 18.0 ],
					"rows" : 1,
					"style" : "",
					"varname" : "clapBeats"
				}

			}
, 			{
				"box" : 				{
					"id" : "obj-108",
					"maxclass" : "newobj",
					"numinlets" : 1,
					"numoutlets" : 1,
					"outlettype" : [ "" ],
					"patching_rect" : [ 1054.0, 186.5, 247.0, 36.0 ],
					"style" : "",
					"text" : "prepend /handclapList"
				}

			}
, 			{
				"box" : 				{
					"fontname" : "Arial",
					"fontsize" : 13.0,
					"id" : "obj-101",
					"maxclass" : "message",
					"numinlets" : 2,
					"numoutlets" : 1,
					"outlettype" : [ "" ],
					"patching_rect" : [ 705.0, 254.0, 189.0, 23.0 ],
					"style" : "",
					"text" : "1 0 0 1 1 0 0 0 1 0 0 1 1 0 0 0"
				}

			}
, 			{
				"box" : 				{
					"autosize" : 1,
					"bgcolor" : [ 0.862745, 0.741176, 0.137255, 1.0 ],
					"color" : [ 0.960784, 0.827451, 0.156863, 1.0 ],
					"columns" : 16,
					"elementcolor" : [ 0.764706, 0.592157, 0.101961, 1.0 ],
					"id" : "obj-102",
					"maxclass" : "matrixctrl",
					"numinlets" : 1,
					"numoutlets" : 2,
					"outlettype" : [ "list", "list" ],
					"parameter_enable" : 0,
					"patching_rect" : [ 705.0, 216.0, 258.0, 18.0 ],
					"presentation" : 1,
					"presentation_rect" : [ 358.0, 273.600006, 258.0, 18.0 ],
					"rows" : 1,
					"style" : "",
					"varname" : "clavesBeats"
				}

			}
, 			{
				"box" : 				{
					"id" : "obj-103",
					"maxclass" : "newobj",
					"numinlets" : 1,
					"numoutlets" : 1,
					"outlettype" : [ "" ],
					"patching_rect" : [ 705.0, 303.0, 218.0, 36.0 ],
					"style" : "",
					"text" : "prepend /clavesList"
				}

			}
, 			{
				"box" : 				{
					"id" : "obj-100",
					"linecount" : 2,
					"maxclass" : "comment",
					"numinlets" : 1,
					"numoutlets" : 0,
					"patching_rect" : [ 404.0, 403.0, 150.0, 62.0 ],
					"style" : "",
					"text" : "Sends everything."
				}

			}
, 			{
				"box" : 				{
					"id" : "obj-98",
					"linecount" : 2,
					"maxclass" : "comment",
					"numinlets" : 1,
					"numoutlets" : 0,
					"patching_rect" : [ 572.0, 403.0, 150.0, 62.0 ],
					"style" : "",
					"text" : "Clears everything."
				}

			}
, 			{
				"box" : 				{
					"id" : "obj-84",
					"maxclass" : "comment",
					"numinlets" : 1,
					"numoutlets" : 0,
					"patching_rect" : [ 421.5, 681.5, 342.0, 34.0 ],
					"style" : "",
					"text" : "This button powers on the train"
				}

			}
, 			{
				"box" : 				{
					"id" : "obj-82",
					"maxclass" : "comment",
					"numinlets" : 1,
					"numoutlets" : 0,
					"patching_rect" : [ 550.0, 51.0, 443.0, 34.0 ],
					"style" : "",
					"text" : "Here are pieces of our drum machine!"
				}

			}
, 			{
				"box" : 				{
					"id" : "obj-80",
					"maxclass" : "comment",
					"numinlets" : 1,
					"numoutlets" : 0,
					"patching_rect" : [ 807.799988, 669.700012, 150.0, 34.0 ],
					"style" : "",
					"text" : "Storage"
				}

			}
, 			{
				"box" : 				{
					"id" : "obj-74",
					"maxclass" : "comment",
					"numinlets" : 1,
					"numoutlets" : 0,
					"patching_rect" : [ 98.0, 610.0, 420.0, 34.0 ],
					"style" : "",
					"text" : "The horn sounds when pressed down"
				}

			}
, 			{
				"box" : 				{
					"id" : "obj-69",
					"maxclass" : "newobj",
					"numinlets" : 1,
					"numoutlets" : 1,
					"outlettype" : [ "" ],
					"patching_rect" : [ 63.0, 780.0, 208.0, 36.0 ],
					"style" : "",
					"text" : "prepend /playHorn"
				}

			}
, 			{
				"box" : 				{
					"id" : "obj-70",
					"maxclass" : "number",
					"numinlets" : 1,
					"numoutlets" : 2,
					"outlettype" : [ "", "bang" ],
					"parameter_enable" : 0,
					"patching_rect" : [ 98.0, 724.0, 81.0, 36.0 ],
					"style" : ""
				}

			}
, 			{
				"box" : 				{
					"fontname" : "Arial",
					"fontsize" : 13.0,
					"id" : "obj-49",
					"maxclass" : "message",
					"numinlets" : 2,
					"numoutlets" : 1,
					"outlettype" : [ "" ],
					"patching_rect" : [ 458.0, 361.0, 60.0, 23.0 ],
					"style" : "",
					"text" : "getrow 0"
				}

			}
, 			{
				"box" : 				{
					"fontname" : "Arial",
					"fontsize" : 13.0,
					"id" : "obj-50",
					"maxclass" : "message",
					"numinlets" : 2,
					"numoutlets" : 1,
					"outlettype" : [ "" ],
					"patching_rect" : [ 394.0, 169.0, 189.0, 23.0 ],
					"style" : "",
					"text" : "1 1 1 1 0 1 1 0 1 1 1 1 0 1 1 0"
				}

			}
, 			{
				"box" : 				{
					"fontname" : "Arial",
					"fontsize" : 13.0,
					"id" : "obj-23",
					"maxclass" : "message",
					"numinlets" : 2,
					"numoutlets" : 1,
					"outlettype" : [ "" ],
					"patching_rect" : [ 577.0, 361.0, 38.0, 23.0 ],
					"style" : "",
					"text" : "clear"
				}

			}
, 			{
				"box" : 				{
					"autosize" : 1,
					"bgcolor" : [ 0.784314, 0.145098, 0.023529, 1.0 ],
					"color" : [ 0.92549, 0.364706, 0.341176, 1.0 ],
					"columns" : 16,
					"elementcolor" : [ 0.52549, 0.062745, 0.003922, 1.0 ],
					"id" : "obj-58",
					"maxclass" : "matrixctrl",
					"numinlets" : 1,
					"numoutlets" : 2,
					"outlettype" : [ "list", "list" ],
					"parameter_enable" : 0,
					"patching_rect" : [ 394.0, 131.0, 258.0, 18.0 ],
					"presentation" : 1,
					"presentation_rect" : [ 358.0, 253.600006, 258.0, 18.0 ],
					"rows" : 1,
					"style" : "",
					"varname" : "cowbellBeats"
				}

			}
, 			{
				"box" : 				{
					"active1" : [ 0.960784, 0.827451, 0.156863, 1.0 ],
					"annotation" : "Shift-click to save!",
					"bgcolor" : [ 0.095481, 0.100396, 0.100293, 1.0 ],
					"emptycolor" : [ 0.862745, 0.870588, 0.878431, 1.0 ],
					"id" : "obj-28",
					"maxclass" : "preset",
					"numinlets" : 1,
					"numoutlets" : 4,
					"outlettype" : [ "preset", "int", "preset", "int" ],
					"patching_rect" : [ 807.799988, 806.700012, 310.0, 102.0 ],
					"pattrstorage" : "presetValues",
					"presentation" : 1,
					"presentation_rect" : [ 358.0, 206.000015, 40.399998, 42.999996 ],
					"stored1" : [ 0.32549, 0.345098, 0.372549, 1.0 ],
					"style" : ""
				}

			}
, 			{
				"box" : 				{
					"id" : "obj-26",
					"maxclass" : "newobj",
					"numinlets" : 1,
					"numoutlets" : 4,
					"outlettype" : [ "", "", "", "" ],
					"patching_rect" : [ 807.799988, 712.700012, 105.0, 36.0 ],
					"restore" : 					{
						"clapBeats" : [ 0, 0, 0 ],
						"clavesBeats" : [ 0, 0, 0 ],
						"congaBeats" : [ 0, 0, 0 ],
						"cowbellBeats" : [ 0, 0, 0 ],
						"speedSlider" : [ 50 ]
					}
,
					"style" : "",
					"text" : "autopattr",
					"varname" : "u366004275"
				}

			}
, 			{
				"box" : 				{
					"autorestore" : "presetValues.json",
					"id" : "obj-24",
					"maxclass" : "newobj",
					"numinlets" : 1,
					"numoutlets" : 1,
					"outlettype" : [ "" ],
					"patching_rect" : [ 807.799988, 760.700012, 284.0, 36.0 ],
					"saved_object_attributes" : 					{
						"client_rect" : [ 100, 100, 500, 600 ],
						"parameter_enable" : 0,
						"storage_rect" : [ 200, 200, 800, 500 ]
					}
,
					"style" : "",
					"text" : "pattrstorage presetValues",
					"varname" : "presetValues"
				}

			}
, 			{
				"box" : 				{
					"id" : "obj-22",
					"maxclass" : "newobj",
					"numinlets" : 1,
					"numoutlets" : 1,
					"outlettype" : [ "" ],
					"patching_rect" : [ 421.5, 841.0, 275.0, 36.0 ],
					"style" : "",
					"text" : "prepend /playStopButton"
				}

			}
, 			{
				"box" : 				{
					"id" : "obj-21",
					"maxclass" : "number",
					"numinlets" : 1,
					"numoutlets" : 2,
					"outlettype" : [ "", "bang" ],
					"parameter_enable" : 0,
					"patching_rect" : [ 421.5, 789.0, 81.0, 36.0 ],
					"style" : ""
				}

			}
, 			{
				"box" : 				{
					"id" : "obj-1",
					"maxclass" : "newobj",
					"numinlets" : 1,
					"numoutlets" : 1,
					"outlettype" : [ "" ],
					"patching_rect" : [ 394.0, 218.0, 229.0, 36.0 ],
					"style" : "",
					"text" : "prepend /cowbellList"
				}

			}
, 			{
				"box" : 				{
					"id" : "obj-19",
					"maxclass" : "message",
					"numinlets" : 2,
					"numoutlets" : 1,
					"outlettype" : [ "" ],
					"patching_rect" : [ 61.0, 254.0, 213.0, 36.0 ],
					"style" : "",
					"text" : "/speedSlider 50"
				}

			}
, 			{
				"box" : 				{
					"id" : "obj-14",
					"maxclass" : "newobj",
					"numinlets" : 1,
					"numoutlets" : 1,
					"outlettype" : [ "" ],
					"patching_rect" : [ 35.0, 188.0, 239.0, 36.0 ],
					"style" : "",
					"text" : "prepend /speedSlider"
				}

			}
, 			{
				"box" : 				{
					"id" : "obj-13",
					"maxclass" : "newobj",
					"numinlets" : 1,
					"numoutlets" : 0,
					"patching_rect" : [ 35.0, 458.0, 264.0, 36.0 ],
					"style" : "",
					"text" : "udpsend localhost 1235"
				}

			}
, 			{
				"box" : 				{
					"id" : "obj-7",
					"maxclass" : "number",
					"numinlets" : 1,
					"numoutlets" : 2,
					"outlettype" : [ "", "bang" ],
					"parameter_enable" : 0,
					"patching_rect" : [ 35.0, 131.0, 81.0, 36.0 ],
					"style" : ""
				}

			}
, 			{
				"box" : 				{
					"bgcolor" : [ 0.0, 0.0, 0.0, 1.0 ],
					"elementcolor" : [ 0.231373, 0.121569, 0.305882, 1.0 ],
					"id" : "obj-4",
					"knobcolor" : [ 0.701961, 0.415686, 0.886275, 1.0 ],
					"knobshape" : 1,
					"maxclass" : "slider",
					"numinlets" : 1,
					"numoutlets" : 1,
					"orientation" : 1,
					"outlettype" : [ "" ],
					"parameter_enable" : 0,
					"patching_rect" : [ 35.0, 87.0, 272.0, 23.0 ],
					"presentation" : 1,
					"presentation_rect" : [ 358.0, 333.600006, 258.0, 18.0 ],
					"size" : 100.0,
					"style" : "",
					"varname" : "speedSlider"
				}

			}
 ],
		"lines" : [ 			{
				"patchline" : 				{
					"destination" : [ "obj-13", 0 ],
					"disabled" : 0,
					"hidden" : 0,
					"midpoints" : [ 403.5, 355.5, 44.5, 355.5 ],
					"source" : [ "obj-1", 0 ]
				}

			}
, 			{
				"patchline" : 				{
					"destination" : [ "obj-103", 0 ],
					"disabled" : 0,
					"hidden" : 0,
					"source" : [ "obj-101", 0 ]
				}

			}
, 			{
				"patchline" : 				{
					"destination" : [ "obj-101", 1 ],
					"disabled" : 0,
					"hidden" : 0,
					"midpoints" : [ 953.5, 243.5, 884.5, 243.5 ],
					"source" : [ "obj-102", 1 ]
				}

			}
, 			{
				"patchline" : 				{
					"destination" : [ "obj-13", 0 ],
					"disabled" : 0,
					"hidden" : 0,
					"midpoints" : [ 714.5, 398.0, 44.5, 398.0 ],
					"source" : [ "obj-103", 0 ]
				}

			}
, 			{
				"patchline" : 				{
					"destination" : [ "obj-108", 0 ],
					"disabled" : 0,
					"hidden" : 0,
					"source" : [ "obj-106", 0 ]
				}

			}
, 			{
				"patchline" : 				{
					"destination" : [ "obj-106", 1 ],
					"disabled" : 0,
					"hidden" : 0,
					"midpoints" : [ 1302.5, 127.0, 1233.5, 127.0 ],
					"source" : [ "obj-107", 1 ]
				}

			}
, 			{
				"patchline" : 				{
					"destination" : [ "obj-13", 0 ],
					"disabled" : 0,
					"hidden" : 0,
					"midpoints" : [ 1063.5, 339.75, 44.5, 339.75 ],
					"source" : [ "obj-108", 0 ]
				}

			}
, 			{
				"patchline" : 				{
					"destination" : [ "obj-111", 0 ],
					"disabled" : 0,
					"hidden" : 0,
					"source" : [ "obj-109", 0 ]
				}

			}
, 			{
				"patchline" : 				{
					"destination" : [ "obj-109", 1 ],
					"disabled" : 0,
					"hidden" : 0,
					"midpoints" : [ 986.5, 543.0, 917.5, 543.0 ],
					"source" : [ "obj-110", 1 ]
				}

			}
, 			{
				"patchline" : 				{
					"destination" : [ "obj-13", 0 ],
					"disabled" : 0,
					"hidden" : 0,
					"midpoints" : [ 747.5, 647.5, 396.0, 647.5, 396.0, 447.0, 44.5, 447.0 ],
					"source" : [ "obj-111", 0 ]
				}

			}
, 			{
				"patchline" : 				{
					"destination" : [ "obj-21", 0 ],
					"disabled" : 0,
					"hidden" : 0,
					"source" : [ "obj-118", 0 ]
				}

			}
, 			{
				"patchline" : 				{
					"destination" : [ "obj-49", 0 ],
					"disabled" : 0,
					"hidden" : 0,
					"source" : [ "obj-119", 0 ]
				}

			}
, 			{
				"patchline" : 				{
					"destination" : [ "obj-23", 0 ],
					"disabled" : 0,
					"hidden" : 0,
					"source" : [ "obj-122", 0 ]
				}

			}
, 			{
				"patchline" : 				{
					"destination" : [ "obj-126", 0 ],
					"disabled" : 0,
					"hidden" : 0,
					"midpoints" : [ 111.600006, 725.740662, 103.550003, 725.740662, 103.550003, 513.5, 95.5, 513.5 ],
					"source" : [ "obj-123", 0 ]
				}

			}
, 			{
				"patchline" : 				{
					"destination" : [ "obj-70", 0 ],
					"disabled" : 0,
					"hidden" : 0,
					"source" : [ "obj-123", 0 ]
				}

			}
, 			{
				"patchline" : 				{
					"destination" : [ "obj-13", 0 ],
					"disabled" : 0,
					"hidden" : 0,
					"source" : [ "obj-14", 0 ]
				}

			}
, 			{
				"patchline" : 				{
					"destination" : [ "obj-19", 1 ],
					"disabled" : 0,
					"hidden" : 0,
					"midpoints" : [ 44.5, 238.5, 264.5, 238.5 ],
					"source" : [ "obj-14", 0 ]
				}

			}
, 			{
				"patchline" : 				{
					"destination" : [ "obj-22", 0 ],
					"disabled" : 0,
					"hidden" : 0,
					"source" : [ "obj-21", 0 ]
				}

			}
, 			{
				"patchline" : 				{
					"destination" : [ "obj-13", 0 ],
					"disabled" : 0,
					"hidden" : 0,
					"midpoints" : [ 431.0, 822.0, 326.75, 822.0, 326.75, 447.0, 44.5, 447.0 ],
					"source" : [ "obj-22", 0 ]
				}

			}
, 			{
				"patchline" : 				{
					"destination" : [ "obj-102", 0 ],
					"disabled" : 0,
					"hidden" : 0,
					"midpoints" : [ 586.5, 394.0, 650.5, 394.0, 650.5, 205.0, 714.5, 205.0 ],
					"source" : [ "obj-23", 0 ]
				}

			}
, 			{
				"patchline" : 				{
					"destination" : [ "obj-107", 0 ],
					"disabled" : 0,
					"hidden" : 0,
					"midpoints" : [ 586.5, 394.0, 825.0, 394.0, 825.0, 88.5, 1063.5, 88.5 ],
					"source" : [ "obj-23", 0 ]
				}

			}
, 			{
				"patchline" : 				{
					"destination" : [ "obj-110", 0 ],
					"disabled" : 0,
					"hidden" : 0,
					"midpoints" : [ 586.5, 449.25, 747.5, 449.25 ],
					"source" : [ "obj-23", 0 ]
				}

			}
, 			{
				"patchline" : 				{
					"destination" : [ "obj-58", 0 ],
					"disabled" : 0,
					"hidden" : 0,
					"midpoints" : [ 586.5, 394.0, 495.0, 394.0, 495.0, 120.0, 403.5, 120.0 ],
					"source" : [ "obj-23", 0 ]
				}

			}
, 			{
				"patchline" : 				{
					"destination" : [ "obj-7", 0 ],
					"disabled" : 0,
					"hidden" : 0,
					"source" : [ "obj-4", 0 ]
				}

			}
, 			{
				"patchline" : 				{
					"destination" : [ "obj-101", 0 ],
					"disabled" : 0,
					"hidden" : 0,
					"midpoints" : [ 467.5, 394.0, 591.0, 394.0, 591.0, 243.0, 714.5, 243.0 ],
					"source" : [ "obj-49", 0 ]
				}

			}
, 			{
				"patchline" : 				{
					"destination" : [ "obj-102", 0 ],
					"disabled" : 0,
					"hidden" : 0,
					"midpoints" : [ 467.5, 394.0, 591.0, 394.0, 591.0, 205.0, 714.5, 205.0 ],
					"source" : [ "obj-49", 0 ]
				}

			}
, 			{
				"patchline" : 				{
					"destination" : [ "obj-106", 0 ],
					"disabled" : 0,
					"hidden" : 0,
					"midpoints" : [ 467.5, 394.0, 765.5, 394.0, 765.5, 126.5, 1063.5, 126.5 ],
					"source" : [ "obj-49", 0 ]
				}

			}
, 			{
				"patchline" : 				{
					"destination" : [ "obj-107", 0 ],
					"disabled" : 0,
					"hidden" : 0,
					"midpoints" : [ 467.5, 394.0, 765.5, 394.0, 765.5, 88.5, 1063.5, 88.5 ],
					"source" : [ "obj-49", 0 ]
				}

			}
, 			{
				"patchline" : 				{
					"destination" : [ "obj-109", 0 ],
					"disabled" : 0,
					"hidden" : 0,
					"midpoints" : [ 467.5, 468.25, 747.5, 468.25 ],
					"source" : [ "obj-49", 0 ]
				}

			}
, 			{
				"patchline" : 				{
					"destination" : [ "obj-110", 0 ],
					"disabled" : 0,
					"hidden" : 0,
					"midpoints" : [ 467.5, 449.25, 747.5, 449.25 ],
					"source" : [ "obj-49", 0 ]
				}

			}
, 			{
				"patchline" : 				{
					"destination" : [ "obj-50", 0 ],
					"disabled" : 0,
					"hidden" : 0,
					"midpoints" : [ 467.5, 400.0, 435.5, 400.0, 435.5, 158.0, 403.5, 158.0 ],
					"source" : [ "obj-49", 0 ]
				}

			}
, 			{
				"patchline" : 				{
					"destination" : [ "obj-58", 0 ],
					"disabled" : 0,
					"hidden" : 0,
					"midpoints" : [ 467.5, 400.0, 435.5, 400.0, 435.5, 120.0, 403.5, 120.0 ],
					"source" : [ "obj-49", 0 ]
				}

			}
, 			{
				"patchline" : 				{
					"destination" : [ "obj-1", 0 ],
					"disabled" : 0,
					"hidden" : 0,
					"source" : [ "obj-50", 0 ]
				}

			}
, 			{
				"patchline" : 				{
					"destination" : [ "obj-50", 1 ],
					"disabled" : 0,
					"hidden" : 0,
					"midpoints" : [ 642.5, 158.5, 573.5, 158.5 ],
					"source" : [ "obj-58", 1 ]
				}

			}
, 			{
				"patchline" : 				{
					"destination" : [ "obj-13", 0 ],
					"disabled" : 0,
					"hidden" : 0,
					"midpoints" : [ 72.5, 826.0, 58.5, 826.0, 58.5, 447.0, 44.5, 447.0 ],
					"source" : [ "obj-69", 0 ]
				}

			}
, 			{
				"patchline" : 				{
					"destination" : [ "obj-14", 0 ],
					"disabled" : 0,
					"hidden" : 0,
					"source" : [ "obj-7", 0 ]
				}

			}
, 			{
				"patchline" : 				{
					"destination" : [ "obj-69", 0 ],
					"disabled" : 0,
					"hidden" : 0,
					"source" : [ "obj-70", 0 ]
				}

			}
 ],
		"dependency_cache" : [ 			{
				"name" : "presetValues.json",
				"bootpath" : "~/Documents/mus314/midterm",
				"type" : "JSON",
				"implicit" : 1
			}
, 			{
				"name" : "power.png",
				"bootpath" : "~/Documents/mus314/midterm",
				"type" : "PNG ",
				"implicit" : 1
			}
, 			{
				"name" : "send.png",
				"bootpath" : "~/Documents/mus314/midterm",
				"type" : "PNG ",
				"implicit" : 1
			}
, 			{
				"name" : "delete.png",
				"bootpath" : "~/Documents/mus314/midterm",
				"type" : "PNG ",
				"implicit" : 1
			}
, 			{
				"name" : "horn.png",
				"bootpath" : "~/Documents/mus314/midterm",
				"type" : "PNG ",
				"implicit" : 1
			}
, 			{
				"name" : "steam.png",
				"bootpath" : "~/Documents/mus314/midterm",
				"type" : "PNG ",
				"implicit" : 1
			}
, 			{
				"name" : "chimney.png",
				"bootpath" : "~/Documents/mus314/midterm",
				"type" : "PNG ",
				"implicit" : 1
			}
 ],
		"autosave" : 0,
		"bgfillcolor_type" : "gradient",
		"bgfillcolor_color1" : [ 0.376471, 0.384314, 0.4, 1.0 ],
		"bgfillcolor_color2" : [ 0.290196, 0.309804, 0.301961, 1.0 ],
		"bgfillcolor_color" : [ 0.290196, 0.309804, 0.301961, 1.0 ],
		"bgfillcolor_angle" : 270.0,
		"bgfillcolor_proportion" : 0.39
	}

}
